<?xml version="1.0" encoding="UTF-8"?>
<svg id="Layer_1" data-name="Layer 1" xmlns="http://www.w3.org/2000/svg" version="1.1" viewBox="0 0 1999.44 1999.44">
  <defs>
    <style>
      .cls-1 {
        fill: #000;
        stroke-width: 0px;
      }
    </style>
  </defs>
  <path class="cls-1" d="M1546.17,262.92c-13.23-9.52-16.4-5.82-16.4-5.82l-893.51,890.34c-27.75-25.41-69.25-55.93-102.68-51.28-41.79,5.82-57.14,22.75-77.77,59.25,0,0-69.83,117.45-82,141.78-12.17,24.34-14.81,46.03,0,71.95,14.81,25.92,56.08,67.19,76.18,75.65,20.1,8.46,36.5,6.88,58.72-2.12,22.22-8.99,126.44-73.54,148.66-82,22.22-8.46,62.43-39.15,60.31-82.53-1.82-37.25-29.37-75.24-52.53-101.33l508.03-506.02s381.44-381.44,383.56-384.62c2.12-3.17,2.64-13.76-10.58-23.28Z"/>
  <path class="cls-1" d="M1580.23,1295.49c-12.17-24.34-82-141.78-82-141.78-20.63-36.5-35.98-53.43-77.77-59.25-33.42-4.65-74.93,25.87-102.68,51.28L424.27,255.39s-3.17-3.7-16.4,5.82-12.7,20.1-10.58,23.28c2.12,3.17,383.56,384.62,383.56,384.62l508.03,506.02c-23.16,26.08-50.71,64.08-52.53,101.33-2.12,43.38,38.09,74.07,60.31,82.53,22.22,8.46,126.44,73.01,148.66,82,22.22,8.99,38.62,10.58,58.72,2.12,20.1-8.46,61.37-49.73,76.18-75.65,14.81-25.92,12.17-47.61,0-71.95Z"/>
  <path class="cls-1" d="M1070.03,1309.37c-28-9.97-58.69-12.98-73.5-13.89.13-292.76.57-1254.18,1.02-1256.88.53-3.17-4.76-12.7-23.28-10.58-18.52,2.12-15.87,12.17-15.87,12.17l-2.09,1255.37c-18.4,0-93.06,3.3-123.83,58.78,0,0-12.7,24.87,0,70.89,12.7,46.03,35.45,137.55,43.38,163.47s28.04,50.26,73.54,55.02c45.5,4.76,83.59,1.06,105.81-18.52,22.22-19.57,31.21-59.78,41.27-104.75,10.05-44.97,30.16-97.87,32.27-127.5,2.12-29.63-20.1-69.83-58.72-83.59Z"/>
  <circle class="cls-1" cx="974.39" cy="768.76" r="295.62"/>
  <g>
    <path class="cls-1" d="M1781.17,1573.65c-1.7-20.01-14.05-9.79-34.91,3.41-20.86,13.2-197.99,144.34-275.91,173.72-77.92,29.38-174.15,56.2-275.91,58.76-27.42.69-59.05.21-92.03-.94-5.04-1.71-10.2-3.58-14.57-5.58-11.94-5.47-30.35-16.42-43.95-10.12,0,0-5.97,2.32-4.97,4.81.99,2.49,5.14,2.99,9.95,1.16,4.81-1.82,9.95-1.99,16.92.17,4.76,1.47,11.45,5.54,18.83,8.9-70.85-2.93-145.56-8.61-197.88-12.78-.96-1.01-1.99-1.88-3.14-2.44-7.17-3.48-20.65-13.26-28.04-17.61-7.39-4.35-25-5.65-30.43-3.26s-4.56,10,.65,8.69c5.22-1.3,11.3-4.56,17.17-3.7s22.82,14.35,24.35,15.65c.27.23-.28.58-1.3,1-2.35-.19-4.87-.39-7.07-.57-70.01-5.6-315.17-45.03-358.65-52.6l.53-1.55s8.01-13.51,2.75-32.06-30.45-29.77-40.07-34.57c-9.62-4.81-21.52-13.28-20.38-22.9s13.74-19.23,13.74-19.23c-4.12-1.6-16.71-2.06-22.67,11.45s.69,26.1,13.97,33.89c13.28,7.78,27.7,18.77,27.7,18.77-10.07-.23-27.93,14.65-24.27,35.95s31.14,21.29,31.14,21.29c0,0-1.14,9.62-23.35,39.61-22.21,29.99-36.63,34.57-36.63,34.57-10.07-37.32-46.02-54.04-70.29-51.98-24.27,2.06-26.9,28.23-26.9,28.23,0,0-28.09-4.45-61.94-42.88-33.84-38.43-28.55-49.98-28.55-49.98,0,0-9.24,19.06-11.84,42.75-2.6,23.68-5.2,106.58-5.2,106.58.87,44.19,13.86,88.38,59.79,106,45.92,17.62,101.95,3.18,127.08-34.66,25.13-37.84,19.64-94.16,19.64-94.16,17.33-6.64,40.44-34.37,40.44-34.37,0,0-5.78,20.8-7.22,44.48-1.44,23.68,3.47,62.1,8.95,83.76,5.49,21.66,15.02,33.5,26.86,36.68,11.84,3.18,6.91-1.21,6.91-1.21-16.16-15.85-24.96-41.37-28.35-71.25l127.94,15.63s232.05,25.97,359.79,32.36c127.74,6.39,222.69,6.39,298.9-2.55,76.22-8.94,154.56-30.23,218-53.65,63.44-23.42,101.34-62.59,135.83-88.99,34.49-26.4,107.72-104.32,136.25-147.32,28.53-43.01,34.06-55.35,32.36-75.36ZM336.41,1803.68c4.33-22.82,22.24-26.57,33.21-23.11,10.97,3.47,23.36,14.63,28.13,22.15,9.22,14.51,11.15,30.42,11.15,30.42,0,0-25.73,12.73-49.99,2.91,0,0-26.84-9.55-22.51-32.36ZM233.3,1808.59c1.73-31.19,4.33-64.98,4.33-64.98,26.86,47.08,67.87,62.67,67.87,62.67,0,0-24.55,6.93-40.15,17.04-15.6,10.11-32.64,33.5-33.5,34.37-.87.87-.29-17.91,1.44-49.1ZM389.24,1931.76c-20.05,23.8-46.86,41.09-87.7,33.32-40.84-7.77-67.4-50.86-67.65-83.69,0,0,19.29-61.64,90.95-68.15,0,0-1.75,7.27,13.03,21.05,14.78,13.78,35.33,12.53,48.86,11.27,13.53-1.25,24.3-5.26,24.3-5.26,0,0-1.75,67.65-21.8,91.46ZM871.41,1830.76c-10,14.56-29.78,15.87-29.78,15.87,0,0-11.09-2.17-11.96-16.52-.71-11.68,19.89-23.35,27.58-27.29,6.48.65,12.93,1.29,19.35,1.92,2.22,4.45,3.23,13.74-5.2,26.02ZM814.47,1829.5c-6.26-.68-19.9-2.21-32.78-3.93-15.16-2.02-61.61-11.46-74.35-14.19,1.96-3.97,4.38-7.58,6.92-10.76,6.56,2.76,24.4,9.59,48.37,13.37,19.21,3.03,42.69,6.31,53.45,7.79-.82,1.76-1.4,3.59-1.62,5.5-.09.81.02,1.46,0,2.22ZM817.73,1819.06c-7.3-.64-21.87-2.41-49.8-7.31-35.37-6.21-47.61-11.45-51.54-13.69,3.86-4.4,7.56-7.71,9.86-9.59,34.59,4.16,74.24,8.53,114.09,12.63-6.23,3.06-17.15,9.42-22.62,17.96ZM481.33,1740.52c-6.68,2.61-18.26-5.22-17.77-17.61.49-12.39,8.8-17.28,8.8-17.28,8.8-6.52,20.05-1.63,21.03,10.76.98,12.39-5.38,21.52-12.06,24.13ZM471.16,1883.56c-1.11-15.32-.93-31.57.31-48.11,3.62-48.4,21.52-79.09,24.88-84.46,18.79,3.24,78.14,13.52,127.62,22.75-2.21,1.63-5.47,4.57-9.49,9.86-7.61,10-8.69,21.08-7.17,51.3,1.52,30.21-8.26,53.91-29.78,57.17-21.52,3.26-33.04-12.82-33.47-28.04-.43-15.22,12.82-23.91,12.82-23.91,0,0,3.04-3.26,10.22-3.7,7.17-.43,11.52,3.48,13.48,1.09s-7.17-8.7-18.48-8.48c-11.3.22-31.52,11.09-31.52,36.95,0,11.06,4.67,19.71,11.83,25.88-34.25-3.99-62.2-7.24-71.24-8.29ZM595.82,1898.09c12.71-6.99,19.71-19.96,22.57-29.5,3.91-13.04.22-49.99,3.7-68.25,2.22-11.66,10.08-19.73,15.5-24.07,16.94,2.99,43.8,6.7,76.11,10.68-6.07,5.89-16.82,17.11-19.45,25.13-3.7,11.3-1.74,26.74-1.74,26.74,0,0-24.35-3.26-38.69,8.69-14.35,11.96-20.65,28.26-16.74,43.69,1.44,5.67,4.68,9.76,8.54,12.72-15.86-1.86-32.83-3.84-49.81-5.82ZM667.3,1904.23s-10-5-13.04-11.96c-3.04-6.96-7.82-17.17,5-33.91,12.82-16.74,32.6-12.61,32.6-12.61,0,0,7.61,21.74-2.17,43.47-9.78,21.74-22.39,15-22.39,15ZM683.29,1908.32c5.27-2.31,10.91-6.38,16.4-13.87,13.04-17.82-.65-60.65,5.43-78.03.24-.68.59-1.29.86-1.95,12.16,2.63,57.77,12.41,71.96,14.13,12.64,1.53,29.46,3.72,36.58,4.65,1.72,12.19,13.42,16,13.42,16,0,0-31.95,13.69-40.21,34.34-5.47,13.67,1.23,27.68,18.25,36-44.54-3.33-79.27-5.99-79.91-6.15-.44-.11-17.58-2.15-42.77-5.11ZM869.03,1924.26c20.26-5.09,32.55-15.99,53.67-24.38,29.56-11.74,53.91-25.43,78.47-24.56,24.56.87,33.04,7.39,34.78,5.22,1.74-2.17-6.74-9.56-22.82-10.87-16.08-1.3-38.91-.65-66.08,10-27.17,10.65-85.21,42.39-109.12,41.52-23.91-.87-37.82-13.69-35.87-28.69,1.96-15,28.48-31.3,36.52-34.13,6.28-2.21,28.85-7.5,41.65-19.03,16.09,2.41,134.29,8.94,142.42,8.62,8.46-.33,8.29-1.99,8.96-2.49s-21.23-1.82-45.94-2.32c-21.4-.43-85.84-5.21-102.77-6.48,1.64-1.83,3.03-3.8,4.09-5.92,13.09,1.79,46.61,4.58,67.27,6.04,28.89,2.04,103.23,3.88,111.85,3.88s7.13-1.99,6.14-2.49c-1-.5-29.69-1.33-73.97-2.82-38.16-1.29-94.92-6.5-109.92-7.92,2.86-8.58,3.54-15.66,2.87-21.27,50.64,4.88,97.98,8.92,131.19,11.04,0,0,38.82,2.53,95.39,3.37.48,2.56.54,6.82-.61,14.45-2.65,17.58-28.36,25.71-34.33,26.7-5.97,1-13.1,1.33-13.76,3.48-.66,2.16,8.29,4.64,14.1,3.81,5.8-.83,20.73-2.32,26.53-1.66,5.8.66,20.73,6.8,21.89,21.06,1.16,14.26-14.59,27.36-35.32,34.99-14.98,5.51-36.22,9.63-46.89,11.49-23.17-.4-42.35-.94-51.68-1.47-13.53-.77-70.43-4.88-128.68-9.18ZM1087.55,1935.41c5.72-1.81,11.93-3.78,17.53-5.52,15.42-4.81,37.65-17.41,38.81-34.5,1.16-17.08-7.79-29.35-33-34.66,0,0,18.57-6.63,18.24-25.71-.14-7.87-.35-11.94-.9-14.32,18.46.2,38.49.21,59.57-.11,3.6,1.2,8.12,3.17,10.82,6.14,4.97,5.47,6.63,18.24,6.63,18.24,0,0-13.43-8.79-30.68,1.16-17.25,9.95-18.24,27.7-9.78,37.15,8.46,9.45,24.88,13.6,34.83,7.79,9.95-5.8,24.05-26.37,20.23-45.77-2.69-13.7-12.09-21.52-17.72-24.98,2.27-.05,4.5-.08,6.78-.14,6.12-.15,11.96-.62,17.95-.93,4.57,5.67,11.96,16.32,13.55,27.88,2.32,16.92.33,35.82-18.91,57.05-15.77,17.41-38.54,27.66-46.79,30.98-23.64.52-56.1.53-87.16.25ZM1204.58,1851.11c1.33,20.23-11.44,33-21.23,34.16-9.78,1.16-16.25-15.59-5.8-26.53,10.45-10.95,27.03-7.63,27.03-7.63ZM1726.67,1660.51c-54.93,66.42-109,129.01-211.62,192.46-102.62,63.44-277.19,78.77-317.21,81.33-.31.02-.68.04-1.01.06,3.27-1.61,7.25-3.84,12.23-7.12,15.59-10.28,38.81-30.68,42.95-60.37,1.05-7.49.38-14.57-1.2-20.98,13.97-1.64,53.58-6.89,90.09-17.32,45.27-12.94,100.67-25.54,169.49-59.87,68.82-34.33,124.88-86.57,127.53-89.55,2.65-2.99,0-3.15-3.48-1s-69.32,52.57-76.95,57.71c-7.63,5.14-93.71,53.93-158.71,71.31-59.06,15.8-106.2,27.73-151.87,27.48-3.03-6.83-6.65-12.31-9.4-15.94,88.85-5.88,163.37-27.86,231.12-55.58,74.94-30.66,136.68-77.92,176.28-106.45,39.6-28.53,124.33-88.99,128.16-85.58,3.83,3.41,8.52,22.99-46.41,89.42ZM1248.5,1838.52c2.98.11,8.14.16,15.29-.34,11.77-.83,45.94-6.14,45.94-6.14l-60.03,9.91c-.37-1.18-.78-2.31-1.2-3.43Z"/>
    <path class="cls-1" d="M1157.9,1902.52c-3.53,0-6.38,2.34-6.38,5.22s2.86,5.22,6.38,5.22,6.39-2.34,6.39-5.22-2.86-5.22-6.39-5.22Z"/>
  </g>
</svg>