<?xml version="1.0" encoding="UTF-8"?>
<svg id="Layer_1" data-name="Layer 1" xmlns="http://www.w3.org/2000/svg" version="1.1" viewBox="0 0 1999.44 1999.44">
  <defs>
    <style>
      .cls-1 {
        fill: #00235a;
      }

      .cls-1, .cls-2, .cls-3 {
        stroke-width: 0px;
      }

      .cls-2 {
        fill: #faa022;
      }

      .cls-3 {
        fill: #fff;
      }
    </style>
  </defs>
  <g>
    <g>
      <path class="cls-3" d="M991.56,1378.58h-32.5l1.99-1337c0-6.37,5.16-11.53,11.53-11.53h9.43c6.37,0,11.53,5.16,11.53,11.53l-1.99,1337Z"/>
      <path class="cls-1" d="M995.14,1382.16h-39.67v-3.59s1.99-1337,1.99-1337c0-8.33,6.78-15.11,15.12-15.11h9.43c8.34,0,15.12,6.78,15.12,15.12l-1.99,1340.59ZM962.65,1374.99h25.32l1.99-1333.42c0-4.37-3.57-7.94-7.95-7.94h-9.43c-4.38,0-7.95,3.56-7.95,7.95l-1.98,1333.41Z"/>
    </g>
    <path class="cls-1" d="M1124.71,1413.61s-34.45,149.13-49.9,182.69c-15.46,33.56-37.54,45.49-93.63,46.81-56.09,1.32-89.65-10.16-102.9-49.9-13.25-39.75-48.58-174.45-48.58-174.45,0,0-18.11-63.6,24.73-93.18,42.84-29.59,77.29-30.91,129.4-29.59,52.11,1.32,84.35,6.18,109.97,24.73,25.61,18.55,39.75,42.69,30.91,92.89Z"/>
  </g>
  <g>
    <g>
      <path class="cls-3" d="M603.05,1231.09l-23-22.96,945.98-944.82c4.5-4.51,11.8-4.51,16.31-.01l6.68,6.67c4.51,4.5,4.51,11.8.01,16.31l-945.98,944.82Z"/>
      <path class="cls-1" d="M603.05,1236.16l-28.08-28.03,2.54-2.53,945.98-944.82c5.89-5.9,15.48-5.9,21.38-.01l6.68,6.66c5.9,5.89,5.91,15.48.02,21.38l-948.52,947.35ZM585.12,1208.13l17.92,17.89,943.45-942.29c3.09-3.1,3.08-8.14-.02-11.24l-6.68-6.66c-3.1-3.09-8.14-3.09-11.24,0l-943.44,942.29Z"/>
    </g>
    <path class="cls-1" d="M672.53,1349.96s-129.73,81.2-164.39,94.04c-34.65,12.83-58.7,5.67-99.33-33.02-40.63-38.69-56.27-70.53-37.57-108.02,18.7-37.49,88.86-157.78,88.86-157.78,0,0,32.11-57.8,83.34-48.48,51.22,9.32,76.54,32.72,112.48,70.48,35.95,37.75,55.33,63.97,60.35,95.19,5.02,31.22-2.03,58.29-43.75,87.58Z"/>
  </g>
  <g>
    <g>
      <path class="cls-3" d="M1349.9,1231.09l23-22.96L426.92,263.31c-4.5-4.51-11.8-4.51-16.31-.01l-6.68,6.67c-4.51,4.5-4.51,11.8-.01,16.31l945.98,944.82Z"/>
      <path class="cls-1" d="M401.38,288.8c-5.89-5.9-5.88-15.49.02-21.38l6.68-6.66c5.9-5.89,15.49-5.88,21.38.01l945.98,944.82,2.54,2.53-28.08,28.03L401.38,288.8ZM424.38,265.84c-3.09-3.1-8.14-3.1-11.24,0l-6.68,6.66c-3.1,3.09-3.11,8.14-.02,11.24l943.45,942.29,17.92-17.89L424.38,265.84Z"/>
    </g>
    <path class="cls-1" d="M1280.42,1349.96s129.73,81.2,164.39,94.04c34.65,12.83,58.7,5.67,99.33-33.02,40.63-38.69,56.27-70.53,37.57-108.02-18.7-37.49-88.86-157.78-88.86-157.78,0,0-32.11-57.8-83.34-48.48-51.22,9.32-76.54,32.72-112.48,70.48-35.95,37.75-55.33,63.97-60.35,95.19-5.02,31.22,2.03,58.29,43.75,87.58Z"/>
  </g>
  <g>
    <ellipse class="cls-2" cx="971.9" cy="765.68" rx="290.2" ry="290.77"/>
    <path class="cls-1" d="M971.89,1061.72c-162.92,0-295.47-132.8-295.47-296.04s132.55-296.04,295.47-296.04,295.48,132.8,295.48,296.04-132.55,296.04-295.48,296.04ZM971.89,480.18c-157.11,0-284.92,128.07-284.92,285.49s127.81,285.49,284.92,285.49,284.92-128.07,284.92-285.49-127.82-285.49-284.92-285.49Z"/>
  </g>
  <path class="cls-1" d="M971.78,872.21c-55.62,0-100.86-45.56-100.86-101.55s45.25-101.55,100.86-101.55,100.87,45.55,100.87,101.55-45.25,101.55-100.87,101.55ZM971.78,676.28c-51.66,0-93.69,42.33-93.69,94.37s42.03,94.37,93.69,94.37,93.69-42.34,93.69-94.37-42.03-94.37-93.69-94.37Z"/>
  <path class="cls-1" d="M1775.24,1559.79c-6.18-2.06-17.37,6.18-42.4,22.97-25.03,16.78-143.09,101.58-214.05,140.44-70.96,38.86-141.32,63.89-245.55,76.26-104.23,12.37-163.4,8.83-171.65,5.3-8.24-3.53-26.2-9.42-37.98-14.72-11.78-5.3-21.79-1.18-24.73,3.24-2.94,4.42,2.94,5.59,6.18,5.01s5.59-3.83,14.13-2.36c8.54,1.47,24.73,10.3,24.73,10.3-53-.29-193.44-12.95-193.44-12.95,0,0-6.18-3.24-15.02-8.54-8.83-5.3-18.25-13.54-31.21-16.19-12.95-2.65-21.79.88-23.26,5.3-1.47,4.42,1.18,5.59,6.18,3.24,5.01-2.36,14.43-4.42,22.38-.59,7.95,3.83,19.73,14.43,19.73,14.43-77.14-5.59-368.03-53.29-368.03-53.29,0,0,6.7-11.26,2.65-28.85-4.4-19.11-25.03-31.21-29.44-33.86-4.42-2.65-30.03-11.78-31.8-25.32-1.77-13.54,14.43-21.79,14.43-21.79,0,0-8.24-4.71-17.96,4.71-9.72,9.42-10.01,25.61,2.36,35.92,12.37,10.3,32.98,23.26,32.98,23.26,0,0-23.26,4.71-23.26,31.21s31.5,26.79,31.5,26.79c-24.73,50.94-60.65,73.31-60.65,73.31-12.95-40.04-43.87-52.7-68.89-51.23-25.03,1.47-28.85,27.09-28.85,27.09,0,0-22.97-4.42-47.99-28.26-25.03-23.85-42.4-62.42-42.4-62.42,0,0-1.18,7.66-7.36,24.14-6.18,16.49-7.66,73.61-9.42,112.47-1.77,38.86,3.53,85.09,45.93,110.7,42.4,25.62,103.05,18.25,136.91-21.49,33.86-39.75,24.73-103.05,24.73-103.05,22.67-9.72,41.22-33.27,41.22-33.27,0,0-6.77,19.43-7.65,46.81-.88,27.38,3.24,75.67,13.84,98.63,10.6,22.96,25.91,21.79,25.91,21.79,3.24.29,5.01-2.06,1.77-4.42-3.24-2.36-10.6-8.54-15.31-21.49-4.71-12.95-13.25-47.7-13.25-47.7,0,0,65.36,6.77,175.48,20.61,110.11,13.84,280.29,26.2,358.61,29.74,78.32,3.53,219.93,10.6,355.37-22.08,135.43-32.68,186.66-66.83,259.39-130.72,72.72-63.89,143.38-156.04,154.87-187.25,11.48-31.21,6.48-39.75.29-41.81ZM339.71,1792.39c7.29-17.44,25.62-18.99,41.29-8.61,15.68,10.38,22.52,28.49,27.38,47.03,0,0-25.84,10.82-47.7,3.53-21.86-7.29-28.26-24.51-20.98-41.96ZM238.35,1740.06c21.2,39.31,64.7,63.37,64.7,63.37-53.88,14.13-71.54,53-71.54,53-.44-58.3,6.85-116.37,6.85-116.37ZM367.97,1948.51c-47.7,28.93-88.77,15.02-111.51-12.81-22.74-27.82-22.08-58.07-22.08-58.07,0,0,20.32-57.85,89.21-67.13,0,0,3.53,20.32,29.37,29.81,25.84,9.5,57.19-1.99,57.19-1.99,0,0,5.52,81.26-42.18,110.19ZM876.07,1803.87s4.64,12.81-5.52,25.17c-10.16,12.37-32.46,15.68-32.46,15.68,0,0-7.73-5.08-8.39-16.78-.66-11.7,13.25-20.98,25.61-25.61l20.76,1.55ZM472.64,1736.3c-9.27-5.52-12.37-17-7.07-26.5,5.3-9.5,20.76-13.69,24.73-2.65,3.97,11.04,1.1,19.43-2.43,25.39,0,0-5.96,9.27-15.24,3.75ZM586.36,1887.34c-19.65,8.83-39.53-.66-41.29-22.3-1.77-21.64,11.26-33.12,25.39-29.81s8.17-4.86,4.2-6.18c-3.97-1.32-23.63-7.73-36.21,11.7-12.59,19.43-8.83,39.75,4.64,49.02l-71.4-7.29s-3.68-31.8,1.62-64.7c5.3-32.9,23.85-69.12,23.85-69.12l126.75,22.52s-18.99,7.51-17,42.84c1.99,35.33-.88,64.48-20.54,73.31ZM642.01,1899.71l-45.71-5.52s24.29-9.27,24.51-51.23c.19-35.36-.66-62.05,19.87-69.56l74.42,9.94s-31.14,18.33-22.52,53c0,0-18.11-7.51-39.75,9.05-21.64,16.56-19.65,42.62-10.82,54.32ZM657.69,1897.28c-6.85-8.83-10.38-20.76-.66-39.08,9.72-18.33,31.14-15.9,35.55-13.69,0,0,3.09,23.41-4.42,41.73-7.51,18.33-23.63,19.87-30.47,11.04ZM687.35,1905.74s8.54-5.3,14.72-21.2c6.18-15.9,4.42-32.68,2.06-49.46-2.36-16.78,4.47-30.45,7.01-33.9,6.54-8.86,16.84-15.27,16.84-15.27,35.92,4.42,111,12.66,111,12.66,0,0-22.96,7.36-24.73,25.91-1.77,18.55,13.25,23.85,13.25,23.85-15.02,6.48-40.92,20.9-42.69,40.63-1.77,19.73,17.96,29.15,17.96,29.15l-115.41-12.37ZM869.45,1923.11s31.14-16.34,66.91-31.58c35.77-15.24,49.46-17.44,65.8-18.33,16.34-.88,26.94,4.42,30.69,5.3,3.75.88,4.86-3.09-.22-5.3-5.08-2.21-30.91-12.37-67.13-1.99-36.21,10.38-78.39,34.23-101.13,42.62-22.74,8.39-50.13,7.29-60.5-9.94-10.38-17.22,8.61-38.86,36.21-47.92,27.6-9.05,40.19-13.03,47.7-28.71,7.51-15.68,2.65-22.08,2.65-22.08,0,0,112.62,8.61,154.35,11.48,41.74,2.87,71.54,1.55,71.54,1.55,0,0,3.31,18.55-7.51,29.15-10.82,10.6-23.41,12.59-34.45,13.91-11.04,1.32-4.86,5.52.88,5.96,5.74.44,18.33-1.55,26.72-1.99,8.39-.44,22.74,1.55,27.16,17.89,4.42,16.34-15.68,37.32-76.18,48.8,0,0-127.19-4.2-183.5-8.83ZM1090.49,1933.49s37.32-9.94,49.24-30.91c11.92-20.98-5.74-40.19-28.26-43.5,0,0,23.41-11.48,17-39.75l58.96-.66s16.56,5.52,16.56,22.97c0,0-19.21-6.18-33.34,4.42-14.13,10.6-17.67,28.26-3.09,39.75,14.57,11.48,34.23,8.83,45.49-12.59,11.26-21.42,7.51-45.05-9.5-54.76l21.86-1.32s18.99,16.78,13.91,49.02c-5.08,32.24-37.76,56.31-65.58,65.58l-83.25,1.77ZM1204.95,1847.89s-4.86,32.68-20.61,35.48c-15.75,2.8-15.9-24.44-1.18-30.77,14.72-6.33,21.79-4.71,21.79-4.71ZM1773.48,1574.88c-.88,5.08-10.82,37.98-61.61,99.37-50.79,61.39-109.3,120.35-188.36,172.24-79.05,51.89-261.23,84.13-323.94,84.57,0,0,41.07-20.98,49.68-54.76,8.61-33.79-13.47-60.73-13.47-60.73,0,0,108.86-9.05,189.24-35.99,80.38-26.94,129.62-64.26,189.02-102.02,59.4-37.76,145.74-102.68,152.36-106.43,6.62-3.75,7.95-1.32,7.07,3.75Z"/>
  <path class="cls-1" d="M818.37,1829.52c-54.31-2.42-113.92-18.66-114.51-18.83l.84-3.05c.59.16,59.86,16.32,113.81,18.71l-.14,3.17Z"/>
  <path class="cls-1" d="M817.89,1818.7c-65.55-4.82-104.59-22.04-104.98-22.22l1.29-2.88c.38.17,38.97,17.17,103.92,21.95l-.23,3.16Z"/>
  <g>
    <path class="cls-1" d="M1068.53,1839.35l5.7-3.24c-59.73,1.13-188.25-11.15-189.61-11.28l-.3,3.15c1.3.13,119.04,11.39,181.77,11.39.83,0,1.63,0,2.44-.01Z"/>
    <path class="cls-1" d="M1030.53,1843.41c-58.21-1.36-154.41-8.79-155.43-8.87l-.25,3.16c.99.08,91.46,7.07,150.12,8.74l5.56-3.02Z"/>
  </g>
  <ellipse class="cls-1" cx="1157.62" cy="1905.94" rx="6.18" ry="4.91"/>
  <path class="cls-1" d="M1243.81,1833.61s60.06-3.24,147.21-26.5c87.15-23.26,153.1-63.89,186.08-88.03,32.98-24.14,52.41-40.63,57.41-43.87,5.01-3.24,5.3-2.36,3.24,2.06-2.06,4.42-87.15,73.61-142.5,96.57-55.35,22.96-142.8,58.59-250.85,68.89l.22-3.09,71.77-10.16-72.43,8.06-.15-3.94Z"/>
</svg>